<svg xmlns="http://www.w3.org/2000/svg" viewBox="0 0 680 430" font-family="-apple-system, BlinkMacSystemFont, 'Segoe UI', Helvetica, Arial, sans-serif">
  <defs>
    <marker id="arrow" viewBox="0 0 10 10" refX="8" refY="5" markerWidth="6" markerHeight="6" orient="auto-start-reverse">
      <path d="M0,0 L10,5 L0,10 z" fill="#ea580c"/>
    </marker>
  </defs>
  <rect x="0" y="0" width="680" height="430" rx="10" fill="#ffffff"/>
  <!-- axes -->
  <line x1="70" y1="370" x2="640" y2="370" stroke="#94a3b8" stroke-width="1.5"/>
  <polygon points="646,370 636,366 636,374" fill="#94a3b8"/>
  <line x1="70" y1="370" x2="70" y2="34" stroke="#94a3b8" stroke-width="1.5"/>
  <polygon points="70,28 66,38 74,38" fill="#94a3b8"/>
<text x="70.0" y="388" text-anchor="middle" font-size="13" fill="#475569">0</text>
<text x="182.0" y="388" text-anchor="middle" font-size="13" fill="#475569">2</text>
<text x="294.0" y="388" text-anchor="middle" font-size="13" fill="#475569">4</text>
<text x="350.0" y="388" text-anchor="middle" font-size="13" fill="#475569">5</text>
<text x="406.0" y="388" text-anchor="middle" font-size="13" fill="#475569">6</text>
<text x="518.0" y="388" text-anchor="middle" font-size="13" fill="#475569">8</text>
<text x="630.0" y="388" text-anchor="middle" font-size="13" fill="#475569">10</text>
<text x="60" y="374.0" text-anchor="end" font-size="13" fill="#475569">0</text>
<text x="60" y="310.5" text-anchor="end" font-size="13" fill="#475569">5</text>
<text x="60" y="247.1" text-anchor="end" font-size="13" fill="#475569">10</text>
<text x="60" y="183.6" text-anchor="end" font-size="13" fill="#475569">15</text>
<text x="60" y="120.2" text-anchor="end" font-size="13" fill="#475569">20</text>
<text x="60" y="56.7" text-anchor="end" font-size="13" fill="#475569">25</text>

  <!-- minimum marker -->
  <line x1="350.0" y1="370" x2="350.0" y2="370.0" stroke="#cbd5e1" stroke-width="1.5" stroke-dasharray="5 4"/>
  <!-- parabola -->
  <polyline points="70.0,52.7 81.2,77.6 92.4,101.4 103.6,124.3 114.8,146.1 126.0,166.9 137.2,186.7 148.4,205.5 159.6,223.3 170.8,240.0 182.0,255.8 193.2,270.5 204.4,284.2 215.6,296.9 226.8,308.6 238.0,319.2 249.2,328.9 260.4,337.5 271.6,345.1 282.8,351.7 294.0,357.3 305.2,361.9 316.4,365.4 327.6,368.0 338.8,369.5 350.0,370.0 361.2,369.5 372.4,368.0 383.6,365.4 394.8,361.9 406.0,357.3 417.2,351.7 428.4,345.1 439.6,337.5 450.8,328.9 462.0,319.2 473.2,308.6 484.4,296.9 495.6,284.2 506.8,270.5 518.0,255.8 529.2,240.0 540.4,223.3 551.6,205.5 562.8,186.7 574.0,166.9 585.2,146.1 596.4,124.3 607.6,101.4 618.8,77.6 630.0,52.7" fill="none" stroke="#2563eb" stroke-width="2.5"/>
  <!-- descent arrows + dots -->
<line x1="70.0" y1="52.7" x2="126.0" y2="166.9" stroke="#ea580c" stroke-width="2" marker-end="url(#arrow)"/>
<line x1="126.0" y1="166.9" x2="170.8" y2="240.0" stroke="#ea580c" stroke-width="2" marker-end="url(#arrow)"/>
<line x1="170.8" y1="240.0" x2="206.6" y2="286.8" stroke="#ea580c" stroke-width="2" marker-end="url(#arrow)"/>
<line x1="206.6" y1="286.8" x2="235.3" y2="316.8" stroke="#ea580c" stroke-width="2" marker-end="url(#arrow)"/>
<line x1="235.3" y1="316.8" x2="258.2" y2="335.9" stroke="#ea580c" stroke-width="2" marker-end="url(#arrow)"/>
<circle cx="70.0" cy="52.7" r="4.5" fill="#ea580c"/>
<circle cx="126.0" cy="166.9" r="4.5" fill="#ea580c"/>
<circle cx="170.8" cy="240.0" r="4.5" fill="#ea580c"/>
<circle cx="206.6" cy="286.8" r="4.5" fill="#ea580c"/>
<circle cx="235.3" cy="316.8" r="4.5" fill="#ea580c"/>
<circle cx="258.2" cy="335.9" r="4.5" fill="#ea580c"/>

  <circle cx="350.0" cy="370.0" r="5" fill="#16a34a"/>
  <!-- annotations -->
  <text x="78.0" y="44.7" font-size="13" fill="#ea580c" font-weight="600">start: w = 0</text>
  <text x="358.0" y="362.0" font-size="13" fill="#16a34a" font-weight="600">minimum: w = 5</text>
  <!-- axis titles -->
  <text x="355" y="410" text-anchor="middle" font-size="14" fill="#334155">weight w</text>
  <text x="24" y="205" text-anchor="middle" font-size="14" fill="#334155" transform="rotate(-90 24 205)">loss = (w - 5)²</text>
</svg>
