<svg xmlns="http://www.w3.org/2000/svg" viewBox="0 0 400 420" font-family="-apple-system, BlinkMacSystemFont, 'Segoe UI', Helvetica, Arial, sans-serif">
  <rect x="0" y="0" width="400" height="420" rx="10" fill="#ffffff"/>
  <circle cx="150" cy="24" r="5" fill="#ea580c"/><text x="160" y="28" font-size="13" fill="#334155">dog</text>
  <circle cx="215" cy="24" r="5" fill="#2563eb"/><text x="225" y="28" font-size="13" fill="#334155">cat</text>
  <text x="200" y="52" text-anchor="middle" font-size="15" fill="#334155" font-weight="600">A straight line</text>
  <rect x="40" y="60" width="320" height="320" fill="#f8fafc" stroke="#e2e8f0"/>
  <line x1="40.0" y1="316.0" x2="360.0" y2="156.0" stroke="#334155" stroke-width="2.5"/>
<circle cx="177.6" cy="213.6" r="5.5" fill="#ea580c"/>
<circle cx="206.4" cy="239.2" r="5.5" fill="#ea580c"/>
<circle cx="219.2" cy="210.4" r="5.5" fill="#ea580c"/>
<circle cx="190.4" cy="200.8" r="5.5" fill="#ea580c"/>
<circle cx="200.0" cy="220.0" r="5.5" fill="#ea580c"/>
<circle cx="212.8" cy="226.4" r="5.5" fill="#ea580c"/>
<circle cx="187.2" cy="232.8" r="5.5" fill="#ea580c"/>
<circle cx="200.0" cy="101.6" r="5.5" fill="#2563eb"/>
<circle cx="104.0" cy="204.0" r="5.5" fill="#2563eb"/>
<circle cx="305.6" cy="220.0" r="5.5" fill="#2563eb"/>
<circle cx="200.0" cy="335.2" r="5.5" fill="#2563eb"/>
<circle cx="123.2" cy="130.4" r="5.5" fill="#2563eb"/>
<circle cx="283.2" cy="136.8" r="5.5" fill="#2563eb"/>
<circle cx="123.2" cy="296.8" r="5.5" fill="#2563eb"/>
<circle cx="289.6" cy="290.4" r="5.5" fill="#2563eb"/>
<circle cx="88.0" cy="252.0" r="5.5" fill="#2563eb"/>
<circle cx="315.2" cy="172.0" r="5.5" fill="#2563eb"/>
<circle cx="168.0" cy="104.8" r="5.5" fill="#2563eb"/>
<circle cx="248.0" cy="328.8" r="5.5" fill="#2563eb"/>

</svg>
