<svg xmlns="http://www.w3.org/2000/svg" viewBox="0 0 640 400" font-family="-apple-system, BlinkMacSystemFont, 'Segoe UI', Helvetica, Arial, sans-serif">
<rect x="0" y="0" width="640" height="400" rx="10" fill="#ffffff"/>
<text x="320.0" y="34" text-anchor="middle" font-size="16" fill="#334155" font-weight="600">Overfitting: the train / validation gap</text>
<line x1="72" y1="322.0" x2="604" y2="322.0" stroke="#eef2f7" stroke-width="1"/>
<text x="62" y="326.0" text-anchor="end" font-size="11" fill="#94a3b8">40%</text>
<line x1="72" y1="236.0" x2="604" y2="236.0" stroke="#eef2f7" stroke-width="1"/>
<text x="62" y="240.0" text-anchor="end" font-size="11" fill="#94a3b8">60%</text>
<line x1="72" y1="150.0" x2="604" y2="150.0" stroke="#eef2f7" stroke-width="1"/>
<text x="62" y="154.0" text-anchor="end" font-size="11" fill="#94a3b8">80%</text>
<line x1="72" y1="64.0" x2="604" y2="64.0" stroke="#eef2f7" stroke-width="1"/>
<text x="62" y="68.0" text-anchor="end" font-size="11" fill="#94a3b8">100%</text>
<line x1="72" y1="64" x2="72" y2="322" stroke="#cbd5e1" stroke-width="1.2"/>
<line x1="72" y1="322" x2="604" y2="322" stroke="#cbd5e1" stroke-width="1.2"/>
<text x="338" y="356" text-anchor="middle" font-size="12" fill="#64748b">training time &#8594;</text>
<text x="22" y="193" text-anchor="middle" font-size="12" fill="#64748b" transform="rotate(-90 22 193)">accuracy</text>
<path d="M 72.0,279.0 L 125.2,210.2 L 178.4,175.8 L 231.6,162.9 L 284.8,156.4 L 320.3,154.3 L 391.2,167.2 L 444.4,184.4 L 497.6,205.9 L 550.8,218.8 L 604.0,227.4 L 604.0,65.7 L 550.8,67.0 L 497.6,68.3 L 444.4,70.5 L 391.2,72.6 L 338.0,76.9 L 284.8,85.5 L 231.6,98.4 L 178.4,128.5 L 125.2,184.4 L 72.0,270.4 Z" fill="#ef4444" fill-opacity="0.12"/>
<line x1="320.3" y1="64" x2="320.3" y2="322" stroke="#64748b" stroke-width="1.1" stroke-dasharray="4 3"/>
<text x="326.3" y="78" font-size="11" fill="#475569">early stopping:</text>
<text x="326.3" y="92" font-size="11" fill="#475569">stop where validation peaks</text>
<path d="M 72.0,270.4 L 125.2,184.4 L 178.4,128.5 L 231.6,98.4 L 284.8,85.5 L 338.0,76.9 L 391.2,72.6 L 444.4,70.5 L 497.6,68.3 L 550.8,67.0 L 604.0,65.7" fill="none" stroke="#2f7fcf" stroke-width="2.6"/>
<path d="M 72.0,279.0 L 125.2,210.2 L 178.4,175.8 L 231.6,162.9 L 284.8,156.4 L 320.3,154.3 L 391.2,167.2 L 444.4,184.4 L 497.6,205.9 L 550.8,218.8 L 604.0,227.4" fill="none" stroke="#d98a2b" stroke-width="2.6"/>
<text x="600.0" y="57.7" text-anchor="end" font-size="11.5" fill="#2f7fcf" font-weight="600">training (100%)</text>
<text x="600.0" y="243.4" text-anchor="end" font-size="11.5" fill="#b9741f" font-weight="600">validation (62%)</text>
<text x="598" y="146.6" text-anchor="end" font-size="11" fill="#c0392b">this gap = memorizing</text>
<text x="160.7" y="244.6" font-size="11" fill="#64748b">both climbing:</text>
<text x="160.7" y="258.6" font-size="11" fill="#64748b">still learning</text>
</svg>